<?xml version="1.0" encoding="UTF-8"?>
<svg id="Layer_2" data-name="Layer 2" xmlns="http://www.w3.org/2000/svg" viewBox="0 0 1080 1080">
  <defs>
    <style>
      .cls-1 {
        letter-spacing: .04em;
      }

      .cls-2 {
        font-family: PlayfairDisplay-Bold, 'Playfair Display';
        font-size: 206.84px;
        font-weight: 700;
      }

      .cls-2, .cls-3 {
        fill: #2d2b26;
      }

      .cls-4 {
        fill: #8daa8c;
      }

      .cls-5 {
        letter-spacing: .05em;
      }

      .cls-6 {
        fill: #d45f2f;
      }
    </style>
  </defs>
  <g>
    <rect class="cls-4" x="258.72" y="47.94" width="562.56" height="562.56" rx="54.38" ry="54.38"/>
    <path class="cls-3" d="M301.97,478.68c-.47-.39-2.13-9.63-.07-11.08,1.71-1.2,9.8-.27,13.11-.78,10.48-1.62,14.84-11.02,25.76-3.19,4.33,3.11,12.12,13.98,15.67,15.64,4.98,2.33,7.72-3.05,9.46-6.74,4.92-10.39,10.35-47.51,25.73-45.97,11.16,1.12,15.29,22.22,17.5,31.25,3.02,12.31,4.25,25.15,7.84,37.33.34,1.15,2.09,10.2,4.3,7.86.97-1.03,5.87-24.01,6.6-27.59,3.26-16.18,8.4-74.44,18.1-83.26,12.86-11.71,18.27,12.4,19.94,20.47,7.4,35.82,7.59,74.19,13.61,110.34l3.15,10.15c2.3-19.84,5.01-39.77,6.96-59.66,3.55-36.37,4.2-75.03,10.77-110.87,1.49-8.15,5.22-34.58,18.86-26.47,5.68,3.38,9.53,30.53,10.73,37.91,9.98,60.96,10.93,123.21,17.58,184.57l3.46-20.27c4.76-42.86,3.48-88.31,10.62-130.71,1.28-7.59,7.01-37.98,20.31-25.89,6.14,5.58,9.41,33.03,10.63,42.07,4.33,32.17,5.64,64.82,12.9,96.58,1.83.15,1.81-2.88,2.15-4.2,7-27.24,7.79-58.57,15.8-84.99,4.41-14.55,16.09-26.95,24.64-7.28,9.58,22.03,7.48,52.99,17.65,75.61,2.23-1.52,4.13-5.64,5.19-8.11,5.37-12.58,10.25-41.32,19.69-49.81,19.79-17.78,28.15,29.93,36.83,33.95,3.53,1.63,13.03-7.39,17.05-9.03,8.83-3.59,10.49-.39,18.07.45,6.61.73,16.74-2.97,16.53,6.52-.22,10.07-21.38,2.99-28.18,4.09-4.9.8-10.28,7.09-15.37,8.96-20.33,7.48-25.07-18.12-32.58-30.64-.76-1.27-2.55-5.78-4.23-5.01-6.61,3.01-14.36,47.31-23.29,56.64-12.3,12.86-19.41-.19-23.05-11.48-7.05-21.81-8.14-45.34-15.06-67.18-7.91,19.02-8.74,41.32-12.51,61.63-1.63,8.8-6.13,39.76-12.43,44.34-15.72,11.42-20-20.47-21.65-29.28-5.32-28.47-7.15-57.68-10.93-86.38l-4.46-21.59c-7.1,37.99-7.05,76.84-10.45,115.25-1.36,15.41-3.28,51.48-8.68,64.3-4.14,9.82-14.11,7.14-17.37-2.33-4.01-11.64-5.18-36.07-6.37-49.23-3.78-41.69-5.08-83.52-10.46-125.08-1.41-10.88-2.96-27.9-5.86-37.94-.17-.61-2.97-1.96-2.8-4.39-2.16,11.26-3.89,22.78-5.2,34.2-4.88,42.44-5.77,86.23-11.76,128.41-.98,6.87-2.76,26.23-8.66,29.57-3.07,1.74-8.2,2-11.23.2-5.97-3.55-10-35.77-11.08-43.65-4.61-33.66-5.83-67.9-12.9-101.21l-5.44,21.76c-3.06,20.5-5.27,41.5-10.17,61.65-2.05,8.43-9.22,39.2-23.41,26.27-11.72-10.67-13.29-60.6-22.38-76.09-1.92.87-3.56,4.72-4.37,6.62-5.95,14.07-10.54,55.17-34.65,44.56-5.91-2.6-17.47-16.99-19.64-17.41-1.69-.32-11.34,5.61-13.74,5.61-2.53,0-16.16.54-16.8,0Z"/>
    <path class="cls-6" d="M536.06,196.93c2.51-2.51,6.57-2.51,9.07,0l113.89,113.89c12.71-20.99,20.03-45.61,20.03-71.94,0-76.8-62.26-139.06-139.06-139.06s-139.06,62.26-139.06,139.06c0,26.64,7.5,51.53,20.49,72.68l114.63-114.63Z"/>
    <path class="cls-3" d="M398.47,366.31l136.94-136.94c2.53-2.53,6.64-2.53,9.17,0l136.94,136.94h33.35c-.25-.4-.54-.78-.89-1.13l-169.4-169.4c-2.53-2.53-6.64-2.53-9.17,0l-169.4,169.4c-.35.35-.64.73-.89,1.13h33.35Z"/>
  </g>
  <text class="cls-2" transform="translate(253.11 814.96)"><tspan class="cls-5"><tspan x="0" y="0">Sonic</tspan></tspan><tspan class="cls-1" x="0" y="210.17">P</tspan><tspan class="cls-5" x="140.45" y="210.17">aths</tspan></text>
</svg>