<?xml version="1.0" encoding="UTF-8"?>
<svg id="Layer_1" data-name="Layer 1" xmlns="http://www.w3.org/2000/svg" viewBox="0 0 1080 1080">
  <defs>
    <style>
      .cls-1 {
        fill: #8daa8c;
      }

      .cls-2 {
        fill: #d45f2f;
      }

      .cls-3 {
        fill: #2d2b26;
      }
    </style>
  </defs>
  <rect class="cls-1" x="28" y="28" width="1024" height="1024" rx="54.38" ry="54.38"/>
  <path class="cls-3" d="M106.72,812.06c-.85-.72-3.88-17.53-.12-20.17,3.11-2.18,17.85-.5,23.87-1.43,19.08-2.95,27.02-20.07,46.89-5.81,7.88,5.65,22.06,25.45,28.52,28.47,9.06,4.24,14.04-5.54,17.23-12.27,8.96-18.91,18.84-86.47,46.84-83.67,20.31,2.03,27.82,40.45,31.86,56.89,5.5,22.41,7.74,45.77,14.27,67.96.62,2.1,3.8,18.57,7.82,14.31,1.77-1.88,10.69-43.7,12.01-50.22,5.94-29.46,15.3-135.49,32.94-151.56,23.41-21.31,33.26,22.57,36.3,37.26,13.48,65.2,13.82,135.04,24.77,200.85l5.74,18.48c4.18-36.12,9.13-72.39,12.66-108.59,6.47-66.21,7.65-136.57,19.6-201.81,2.72-14.83,9.51-62.95,34.32-48.19,10.34,6.15,17.34,55.57,19.54,69.01,18.17,110.96,19.89,224.27,32,335.97l6.3-36.9c8.66-78.01,6.33-160.75,19.34-237.92,2.33-13.82,12.76-69.13,36.96-47.13,11.19,10.16,17.14,60.12,19.35,76.57,7.89,58.57,10.27,117.99,23.49,175.79,3.34.27,3.3-5.25,3.91-7.64,12.74-49.58,14.19-106.62,28.76-154.71,8.03-26.49,29.29-49.05,44.86-13.24,17.44,40.1,13.62,96.45,32.13,137.63,4.07-2.77,7.52-10.27,9.44-14.77,9.77-22.91,18.65-75.22,35.85-90.67,36.02-32.37,51.24,54.48,67.05,61.8,6.42,2.97,23.72-13.45,31.04-16.43,16.06-6.53,19.1-.71,32.9.82,12.03,1.33,30.47-5.41,30.1,11.87-.4,18.33-38.91,5.43-51.29,7.44-8.92,1.45-18.72,12.9-27.97,16.3-37.01,13.62-45.62-32.98-59.31-55.78-1.39-2.32-4.64-10.52-7.7-9.13-12.03,5.48-26.13,86.11-42.4,103.11-22.4,23.4-35.32-.35-41.96-20.89-12.83-39.7-14.81-82.53-27.41-122.28-14.39,34.62-15.92,75.21-22.77,112.19-2.97,16.02-11.16,72.37-22.62,80.7-28.61,20.79-36.41-37.26-39.41-53.29-9.69-51.83-13.02-104.98-19.89-157.24l-8.11-39.3c-12.93,69.15-12.84,139.87-19.02,209.78-2.48,28.05-5.96,93.7-15.8,117.05-7.53,17.88-25.68,13-31.61-4.24-7.29-21.2-9.43-65.65-11.6-89.62-6.88-75.88-9.25-152.03-19.04-227.67-2.57-19.8-5.4-50.78-10.67-69.05-.32-1.1-5.41-3.56-5.09-7.98-3.94,20.5-7.08,41.47-9.47,62.25-8.88,77.24-10.51,156.96-21.41,233.74-1.78,12.51-5.02,47.75-15.75,53.82-5.59,3.16-14.93,3.64-20.44.36-10.86-6.46-18.21-65.11-20.17-79.46-8.4-61.28-10.61-123.6-23.49-184.23l-9.91,39.61c-5.57,37.32-9.59,75.54-18.51,112.22-3.73,15.35-16.77,71.35-42.6,47.82-21.33-19.43-24.2-110.31-40.74-138.5-3.49,1.59-6.49,8.6-7.95,12.04-10.83,25.61-19.19,100.43-63.07,81.11-10.76-4.74-31.8-30.93-35.75-31.69-3.08-.59-20.64,10.21-25,10.21-4.61,0-29.41.99-30.58,0Z"/>
  <path class="cls-2" d="M532.84,299.21c4.56-4.56,11.96-4.56,16.52,0l207.3,207.3c23.14-38.2,36.46-83.02,36.46-130.95,0-139.79-113.33-253.12-253.12-253.12s-253.12,113.33-253.12,253.12c0,48.5,13.65,93.8,37.3,132.3l208.66-208.66Z"/>
  <path class="cls-3" d="M282.39,607.52l249.27-249.27c4.61-4.61,12.08-4.61,16.69,0l249.27,249.27h60.71c-.46-.73-.99-1.43-1.62-2.06l-308.35-308.35c-4.61-4.61-12.08-4.61-16.69,0l-308.35,308.35c-.64.64-1.16,1.33-1.62,2.06h60.71Z"/>
</svg>